<svg width="16" height="16" viewBox="0 0 16 16" fill="none" xmlns="http://www.w3.org/2000/svg">
<path d="M1.80713 10.0586V14.1949H13.934V10.0591" stroke="#FF5214" stroke-miterlimit="10" stroke-linejoin="round"/>
<path d="M9.15688 8.01509H14.8706V5.19727H0.870605V8.01509H6.60932" stroke="#FF5214" stroke-miterlimit="10" stroke-linejoin="round"/>
<path d="M6.64355 5.26562V14.15" stroke="#FF5214" stroke-miterlimit="10" stroke-linejoin="round"/>
<path d="M9.0957 5.26562V14.15" stroke="#FF5214" stroke-miterlimit="10" stroke-linejoin="round"/>
<path d="M7.87646 5.15113C8.21166 2.68486 9.18136 1.19336 10.4658 1.19336C11.4832 1.19336 12.3094 2.08875 12.3094 3.19468C12.3094 4.29962 11.4837 5.19748 10.4658 5.19748" stroke="#FF5214" stroke-miterlimit="10" stroke-linecap="round" stroke-linejoin="round"/>
<path d="M7.86273 5.15113C7.52845 2.68486 6.55966 1.19336 5.2752 1.19336C4.25781 1.19336 3.43164 2.08875 3.43164 3.19468C3.43164 4.29962 4.25736 5.19748 5.2752 5.19748" stroke="#FF5214" stroke-miterlimit="10" stroke-linecap="round" stroke-linejoin="round"/>
</svg>
