<svg width="36" height="30" viewBox="0 0 36 30" fill="none" xmlns="http://www.w3.org/2000/svg">
<path d="M2.94141 20.8698C2.94141 24.7566 6.10591 27.9285 10.0001 27.9285C11.8616 27.9285 13.5518 27.2063 14.8176 26.0298C14.825 26.0149 14.8325 26.0075 14.8399 26C14.8548 25.9926 14.8623 25.9851 14.8697 25.9702C14.8772 25.9628 14.8846 25.9553 14.8921 25.9553C16.2249 24.6672 17.0588 22.8727 17.0588 20.8698C17.0588 16.983 13.8943 13.8111 10.0001 13.8111C8.75665 13.8111 7.58764 14.1387 6.56755 14.6972C4.40825 15.9183 2.94141 18.2265 2.94141 20.8698ZM7.23768 16.1268C7.7589 16.1268 8.24288 16.298 8.63007 16.6108C9.06193 16.4693 9.51613 16.3948 9.99267 16.3948C12.4647 16.3948 14.4676 18.3978 14.4676 20.8624C14.4676 23.3269 12.4647 25.3299 9.99267 25.3299C7.52808 25.3299 5.52513 23.3269 5.52513 20.8624C5.52513 20.5496 5.55491 20.2369 5.62193 19.954C5.21985 19.5444 4.97413 18.9934 4.97413 18.3829C4.97413 17.1394 5.99422 16.1268 7.23768 16.1268Z" fill="#004171"/>
<path d="M7.05163 20.6247C7.04419 20.7066 7.04419 20.7811 7.04419 20.8704C7.04419 22.4936 8.36956 23.819 9.99276 23.819C11.6234 23.819 12.9488 22.4936 12.9488 20.8704C12.9488 19.2472 11.6234 17.9218 9.99276 17.9218C9.81406 17.9218 9.63536 17.9367 9.4641 17.974C9.48644 18.108 9.50133 18.2495 9.50133 18.3835C9.50133 19.627 8.48869 20.6396 7.24523 20.6396C7.17077 20.6396 7.1112 20.6396 7.05163 20.6247Z" fill="#004171"/>
<path d="M6.8203 18.9938C6.83519 19.0012 6.84263 19.0087 6.85753 19.0161H6.86497C6.97666 19.0831 7.10324 19.1203 7.23726 19.1203C7.63934 19.1203 7.97441 18.7853 7.97441 18.3832C7.97441 18.2343 7.92973 18.0854 7.84783 17.9737C7.84038 17.9513 7.82549 17.9364 7.8106 17.9216C7.67657 17.7577 7.46809 17.6461 7.23726 17.6461C6.82774 17.6461 6.49268 17.9737 6.49268 18.3832C6.49268 18.6364 6.6267 18.8597 6.8203 18.9938Z" fill="#004171"/>
<path d="M29.077 14.712C29.0695 14.712 29.0695 14.7046 29.0621 14.7046C29.0248 14.6897 28.9802 14.6674 28.9504 14.645C27.9601 14.1164 26.8283 13.8111 25.6221 13.8111C21.7353 13.8111 18.5708 16.9756 18.5708 20.8698C18.5708 22.8653 19.4047 24.6821 20.7524 25.9702C20.7599 25.9777 20.7748 25.9926 20.7822 26C22.0406 27.1988 23.7457 27.9285 25.6221 27.9285C29.5163 27.9285 32.6808 24.764 32.6808 20.8698C32.6808 18.234 31.2288 15.9332 29.077 14.712ZM25.6221 25.3373C23.1575 25.3373 21.1545 23.3344 21.1545 20.8698C21.1545 20.5571 21.1843 20.2443 21.2513 19.9614C20.8492 19.5519 20.6035 19.0009 20.6035 18.3903C20.6035 17.1469 21.6162 16.1342 22.8596 16.1342C23.3808 16.1342 23.8648 16.3055 24.252 16.6182C24.6839 16.4767 25.1455 16.4023 25.6221 16.4023C28.0941 16.4023 30.097 18.4052 30.097 20.8698C30.097 23.3269 28.0941 25.3373 25.6221 25.3373Z" fill="#004171"/>
<path d="M25.6218 17.9218C25.4431 17.9218 25.2644 17.9367 25.0931 17.974C25.1155 18.108 25.1304 18.2495 25.1304 18.3835C25.1304 19.627 24.1103 20.6396 22.8668 20.6396C22.8072 20.6396 22.7477 20.6396 22.6881 20.6247C22.6807 20.7066 22.6807 20.7811 22.6807 20.8704C22.6807 22.4936 24.006 23.819 25.6292 23.819C27.2599 23.819 28.5853 22.4936 28.5853 20.8704C28.5778 19.2398 27.2599 17.9218 25.6218 17.9218Z" fill="#004171"/>
<path d="M23.6109 18.3832C23.6109 18.2343 23.5662 18.0854 23.4843 17.9737C23.4769 17.9513 23.462 17.9364 23.4471 17.9216C23.313 17.7577 23.1046 17.6461 22.8663 17.6461C22.4642 17.6461 22.1292 17.9737 22.1292 18.3832C22.1292 18.6364 22.2557 18.8597 22.4568 18.9938C22.4717 19.0087 22.4866 19.0161 22.5014 19.0161C22.6057 19.0831 22.7397 19.1203 22.8663 19.1203C23.2758 19.1203 23.6109 18.7853 23.6109 18.3832Z" fill="#004171"/>
<path d="M5.89038 9.89511C6.0393 10.945 6.27012 11.9055 6.56796 12.7692C6.5754 12.7841 6.5754 12.8065 6.58285 12.8213C6.60519 12.8735 6.62008 12.9256 6.64242 12.9777C7.67739 12.5384 8.80917 12.2927 10.0005 12.2927C13.4703 12.2927 16.471 14.3775 17.8187 17.3484C19.159 14.3701 22.1597 12.2927 25.6294 12.2927C26.8208 12.2927 27.9526 12.5384 28.9875 12.9777C29.0099 12.9256 29.0248 12.8735 29.0471 12.8213C29.0545 12.8065 29.062 12.7916 29.062 12.7692C29.3598 11.9129 29.5832 10.945 29.747 9.89511C29.2481 10.2749 28.712 10.5578 28.1387 10.7514C26.3889 11.3694 24.6094 11.0343 23.0234 10.7439C20.8417 10.3419 19.4568 10.1557 18.4144 11.4662C18.124 11.8236 17.5209 11.8236 17.2305 11.4662C16.1806 10.1632 14.7957 10.3419 12.614 10.7439C11.0429 11.0343 9.24848 11.3694 7.49869 10.7514C6.91791 10.5503 6.38181 10.2749 5.89038 9.89511Z" fill="#004171"/>
<path d="M17.8183 29.8872C18.2576 29.2543 18.9724 28.1226 19.3894 26.7451C18.7416 26.0601 18.2055 25.2634 17.8183 24.3922C17.4236 25.2708 16.895 26.0601 16.2397 26.7525C16.6567 28.1226 17.3641 29.2543 17.8183 29.8872Z" fill="#004171"/>
<path d="M12.3312 9.2474C14.1629 8.91233 16.2105 8.53259 17.8188 9.90263C19.4197 8.53259 21.4673 8.91233 23.299 9.2474C24.7658 9.52289 26.2773 9.79839 27.6474 9.31441C27.7814 9.26973 27.9154 9.21761 28.042 9.15805V5.63614L17.9454 7.43804C17.9007 7.44549 17.856 7.45294 17.8188 7.45294C17.7741 7.45294 17.7294 7.44549 17.6848 7.43804L7.58813 5.63614V9.1506C7.71471 9.21017 7.84874 9.26229 7.98277 9.30696C9.36026 9.79839 10.8718 9.52289 12.3312 9.2474Z" fill="#004171"/>
<path d="M34.0426 10.1711V3.22407L35.6211 2.96346L17.818 0L0 2.95602L4.86217 3.76017L4.98875 3.78251L17.8106 5.91204L30.6175 3.78251L30.759 3.76017L32.7024 3.44V10.1636C31.995 10.4391 31.4812 11.1167 31.4812 11.9209C31.4812 12.9558 32.3226 13.8047 33.365 13.8047C34.4 13.8047 35.2414 12.9558 35.2414 11.9209C35.2488 11.1242 34.7425 10.4466 34.0426 10.1711Z" fill="#004171"/>
</svg>
