<svg width="30" height="40" viewBox="0 0 30 40" fill="none" xmlns="http://www.w3.org/2000/svg">
<path d="M3.19897 17.4907C3.19897 20.6367 5.76036 23.2041 8.91237 23.2041C10.4191 23.2041 11.7871 22.6195 12.8117 21.6673C12.8177 21.6552 12.8238 21.6492 12.8298 21.6432C12.8418 21.6372 12.8479 21.6311 12.8539 21.6191C12.8599 21.6131 12.8659 21.607 12.872 21.607C13.9508 20.5644 14.6258 19.1119 14.6258 17.4907C14.6258 14.3448 12.0644 11.7773 8.91237 11.7773C7.90589 11.7773 6.95969 12.0425 6.13402 12.4945C4.38625 13.4829 3.19897 15.3512 3.19897 17.4907ZM6.67643 13.6517C7.0983 13.6517 7.49005 13.7903 7.80344 14.0434C8.15299 13.9289 8.52063 13.8686 8.90634 13.8686C10.9072 13.8686 12.5284 15.4898 12.5284 17.4847C12.5284 19.4796 10.9072 21.1008 8.90634 21.1008C6.91147 21.1008 5.29027 19.4796 5.29027 17.4847C5.29027 17.2316 5.31438 16.9785 5.36862 16.7494C5.04317 16.418 4.84429 15.972 4.84429 15.4778C4.84429 14.4713 5.66996 13.6517 6.67643 13.6517Z" fill="#F79122"/>
<path d="M6.5258 17.2912C6.51977 17.3575 6.51978 17.4178 6.51978 17.4901C6.51978 18.804 7.59254 19.8767 8.90638 19.8767C10.2262 19.8767 11.299 18.804 11.299 17.4901C11.299 16.1763 10.2262 15.1035 8.90638 15.1035C8.76174 15.1035 8.6171 15.1156 8.47848 15.1457C8.49656 15.2542 8.50861 15.3687 8.50861 15.4772C8.50861 16.4837 7.68897 17.3033 6.6825 17.3033C6.62223 17.3033 6.57402 17.3033 6.5258 17.2912Z" fill="#F79122"/>
<path d="M6.33891 15.9717C6.35096 15.9777 6.35699 15.9838 6.36904 15.9898H6.37507C6.46547 16.044 6.56793 16.0742 6.67641 16.0742C7.00186 16.0742 7.27306 15.803 7.27306 15.4775C7.27306 15.357 7.2369 15.2364 7.17061 15.146C7.16458 15.128 7.15253 15.1159 7.14047 15.1038C7.03199 14.9713 6.86324 14.8809 6.67641 14.8809C6.34494 14.8809 6.07373 15.146 6.07373 15.4775C6.07373 15.6824 6.18221 15.8632 6.33891 15.9717Z" fill="#F79122"/>
<path d="M24.3529 12.5066C24.3469 12.5066 24.3469 12.5006 24.3409 12.5006C24.3107 12.4885 24.2746 12.4704 24.2505 12.4523C23.4489 12.0244 22.5328 11.7773 21.5565 11.7773C18.4105 11.7773 15.8491 14.3387 15.8491 17.4907C15.8491 19.1059 16.5241 20.5765 17.615 21.6191C17.621 21.6251 17.6331 21.6372 17.6391 21.6432C18.6576 22.6135 20.0377 23.2041 21.5565 23.2041C24.7085 23.2041 27.2699 20.6427 27.2699 17.4907C27.2699 15.3573 26.0947 13.495 24.3529 12.5066ZM21.5565 21.1068C19.5616 21.1068 17.9404 19.4856 17.9404 17.4907C17.9404 17.2376 17.9645 16.9845 18.0188 16.7555C17.6933 16.424 17.4944 15.978 17.4944 15.4838C17.4944 14.4773 18.3141 13.6577 19.3205 13.6577C19.7424 13.6577 20.1342 13.7963 20.4476 14.0494C20.7971 13.9349 21.1708 13.8747 21.5565 13.8747C23.5574 13.8747 25.1786 15.4959 25.1786 17.4907C25.1786 19.4796 23.5574 21.1068 21.5565 21.1068Z" fill="#F79122"/>
<path d="M21.5566 15.1035C21.412 15.1035 21.2673 15.1156 21.1287 15.1457C21.1468 15.2542 21.1588 15.3687 21.1588 15.4772C21.1588 16.4837 20.3332 17.3033 19.3267 17.3033C19.2785 17.3033 19.2303 17.3033 19.1821 17.2912C19.176 17.3575 19.176 17.4178 19.176 17.4901C19.176 18.804 20.2488 19.8767 21.5626 19.8767C22.8825 19.8767 23.9553 18.804 23.9553 17.4901C23.9492 16.1703 22.8825 15.1035 21.5566 15.1035Z" fill="#F79122"/>
<path d="M19.9293 15.4775C19.9293 15.357 19.8932 15.2364 19.8269 15.146C19.8208 15.128 19.8088 15.1159 19.7967 15.1038C19.6882 14.9713 19.5195 14.8809 19.3266 14.8809C19.0012 14.8809 18.73 15.146 18.73 15.4775C18.73 15.6824 18.8324 15.8632 18.9952 15.9717C19.0072 15.9838 19.0193 15.9898 19.0313 15.9898C19.1157 16.044 19.2242 16.0742 19.3266 16.0742C19.6581 16.0742 19.9293 15.803 19.9293 15.4775Z" fill="#F79122"/>
<path d="M5.58545 8.60742C5.70598 9.4572 5.89282 10.2347 6.13389 10.9338C6.13991 10.9458 6.13991 10.9639 6.14594 10.9759C6.16402 11.0181 6.17607 11.0603 6.19415 11.1025C7.03188 10.7469 7.94795 10.548 8.91224 10.548C11.7207 10.548 14.1495 12.2355 15.2404 14.6402C16.3252 12.2295 18.754 10.548 21.5625 10.548C22.5267 10.548 23.4428 10.7469 24.2805 11.1025C24.2986 11.0603 24.3107 11.0181 24.3288 10.9759C24.3348 10.9639 24.3408 10.9518 24.3408 10.9338C24.5819 10.2407 24.7627 9.4572 24.8953 8.60742C24.4915 8.91479 24.0575 9.14381 23.5935 9.3005C22.1772 9.80073 20.7368 9.52952 19.4531 9.29448C17.6872 8.96903 16.5663 8.81836 15.7225 9.87907C15.4875 10.1684 14.9993 10.1684 14.7642 9.87907C13.9145 8.82439 12.7935 8.96903 11.0276 9.29448C9.75599 9.52952 8.30353 9.80073 6.88723 9.3005C6.41715 9.13778 5.98322 8.91479 5.58545 8.60742Z" fill="#F79122"/>
<path d="M15.2403 24.7896C15.5959 24.2773 16.1745 23.3612 16.512 22.2463C15.9876 21.6918 15.5537 21.0469 15.2403 20.3418C14.9209 21.053 14.493 21.6918 13.9626 22.2523C14.3001 23.3612 14.8727 24.2773 15.2403 24.7896Z" fill="#F79122"/>
<path d="M10.7988 8.08315C12.2814 7.81194 13.9387 7.50458 15.2405 8.6135C16.5363 7.50458 18.1936 7.81194 19.6762 8.08315C20.8635 8.30614 22.0869 8.52913 23.1959 8.13739C23.3044 8.10123 23.4128 8.05904 23.5153 8.01083V5.16016L15.343 6.61864C15.3068 6.62466 15.2707 6.63069 15.2405 6.63069C15.2044 6.63069 15.1682 6.62466 15.132 6.61864L6.95972 5.16016V8.0048C7.06217 8.05301 7.17065 8.0952 7.27914 8.13136C8.39409 8.52913 9.61753 8.30614 10.7988 8.08315Z" fill="#F79122"/>
<path d="M10.9795 34.0527C10.5034 34.0527 10.0875 34.3179 9.86454 34.7097C9.84646 34.7458 9.82838 34.788 9.8103 34.8242C9.75003 34.9809 9.71387 35.1376 9.71387 35.3184V37.8978C9.71387 38.0244 9.73195 38.157 9.76811 38.2715C9.77414 38.2835 9.78016 38.3016 9.78016 38.3137C9.96097 38.8079 10.4311 39.1635 10.9795 39.1635C11.6786 39.1635 12.2451 38.5969 12.2451 37.8978V35.3184C12.2451 34.6253 11.6786 34.0527 10.9795 34.0527Z" fill="#F79122"/>
<path d="M20.6042 34.7097C20.3812 34.3179 19.9654 34.0527 19.4893 34.0527C18.7902 34.0527 18.2236 34.6253 18.2236 35.3184V37.8978C18.2236 38.0244 18.2417 38.157 18.2779 38.2715C18.2839 38.2835 18.2839 38.3016 18.2899 38.3137C18.4647 38.8079 18.9348 39.1635 19.4893 39.1635C20.0377 39.1635 20.5078 38.8079 20.6886 38.3137C20.6946 38.3016 20.6946 38.2835 20.7006 38.2715C20.7368 38.157 20.7549 38.0244 20.7549 37.8978V35.3184C20.7549 35.1376 20.7187 34.9809 20.6585 34.8242C20.6404 34.794 20.6223 34.7458 20.6042 34.7097Z" fill="#F79122"/>
<path d="M16.9944 37.832H13.4687V37.9044C13.4687 38.3202 13.3663 38.718 13.1794 39.0615H17.2777C17.0908 38.718 16.9884 38.3262 16.9884 37.9044V37.832H16.9944Z" fill="#F79122"/>
<path d="M26.5588 37.832H21.9905V37.9044C21.9905 38.3202 21.888 38.718 21.7012 39.0615H26.5588C26.8963 39.0615 27.1735 38.7843 27.1735 38.4468C27.1735 38.1093 26.8963 37.832 26.5588 37.832Z" fill="#F79122"/>
<path d="M8.47852 37.832H3.91625C3.57272 37.832 3.30151 38.1093 3.30151 38.4468C3.30151 38.7843 3.57272 39.0615 3.91625 39.0615H8.76781C8.58098 38.718 8.47852 38.3262 8.47852 37.9044V37.832Z" fill="#F79122"/>
<path d="M28.3728 8.83024V3.20725L29.6505 2.99632L15.2405 0.597656L0.818359 2.99029L4.75385 3.64118L4.85631 3.65926L15.2344 5.38292L25.6005 3.65926L25.715 3.64118L27.288 3.38203V8.82422C26.7155 9.04721 26.2996 9.59565 26.2996 10.2465C26.2996 11.0843 26.9806 11.7713 27.8244 11.7713C28.6621 11.7713 29.3431 11.0843 29.3431 10.2465C29.3492 9.60167 28.9393 9.05324 28.3728 8.83024Z" fill="#F79122"/>
<path d="M26.408 22.4512C25.1605 23.6806 23.4428 24.434 21.5565 24.434C20.0437 24.434 18.6455 23.9458 17.5125 23.1262C17.1268 24.1628 16.5964 25.0126 16.1806 25.5911C15.9636 25.8864 15.608 26.0733 15.2404 26.0733C14.8667 26.0733 14.5172 25.8864 14.3002 25.5851C13.8844 25.0126 13.348 24.1628 12.9623 23.1322C11.8172 23.9579 10.425 24.434 8.91829 24.434C7.03191 24.434 5.3203 23.6867 4.07275 22.4632C4.4886 27.0074 6.36293 31.1117 9.17744 33.6128C9.63548 33.1306 10.2743 32.8293 10.9855 32.8293C12.3656 32.8293 13.4806 33.9503 13.4806 35.3244V35.8909C14.6498 36.144 15.837 36.144 17.0062 35.8909V35.3244C17.0062 33.9443 18.1272 32.8293 19.5013 32.8293C20.2125 32.8293 20.8573 33.1306 21.3154 33.6188C24.1239 31.0996 25.9861 26.9954 26.408 22.4512ZM14.0169 27.2425C14.3062 27.0617 14.6799 27.1581 14.8607 27.4474C15.0053 27.6824 15.4634 27.6884 15.614 27.4474C15.7888 27.1581 16.1685 27.0677 16.4578 27.2425C16.7471 27.4233 16.8375 27.7969 16.6627 28.0862C16.3674 28.5744 15.825 28.8757 15.2404 28.8757C14.6498 28.8757 14.1134 28.5804 13.812 28.0862C13.6312 27.7969 13.7277 27.4172 14.0169 27.2425ZM9.55713 28.0862C9.37632 27.7969 9.46673 27.4233 9.76204 27.2425C10.0453 27.0617 10.425 27.1581 10.6058 27.4474C10.7504 27.6824 11.2085 27.6884 11.3531 27.4474C11.5339 27.1581 11.9136 27.0677 12.2029 27.2425C12.4922 27.4233 12.5826 27.7969 12.4078 28.0862C12.1125 28.5744 11.564 28.8757 10.9855 28.8757C10.4009 28.8697 9.85244 28.5684 9.55713 28.0862ZM13.1129 31.2443C12.5223 31.2443 11.9859 30.955 11.6846 30.4608C11.5038 30.1715 11.6002 29.7918 11.8895 29.611C12.1788 29.4302 12.5524 29.5266 12.7332 29.8159C12.8779 30.057 13.3359 30.063 13.4866 29.8159C13.6614 29.5266 14.0411 29.4362 14.3303 29.611C14.6196 29.7918 14.71 30.1715 14.5353 30.4608C14.2339 30.9429 13.6855 31.2443 13.1129 31.2443ZM16.6567 32.8353C16.3614 33.3235 15.819 33.6248 15.2344 33.6248C14.6437 33.6248 14.1074 33.3295 13.806 32.8414C13.6252 32.546 13.7216 32.1724 14.0109 31.9916C14.3002 31.8108 14.6739 31.9072 14.8547 32.1965C14.9993 32.4376 15.4573 32.4376 15.608 32.1965C15.7888 31.9072 16.1625 31.8168 16.4518 31.9916C16.7411 32.1724 16.8375 32.546 16.6567 32.8353ZM18.7841 30.4608C18.4888 30.9429 17.9464 31.2443 17.3618 31.2443C16.7772 31.2443 16.2288 30.9429 15.9335 30.4608C15.7527 30.1715 15.8491 29.7918 16.1384 29.611C16.4277 29.4302 16.8074 29.5266 16.9882 29.8159C17.1268 30.057 17.5908 30.063 17.7355 29.8159C17.9163 29.5266 18.2899 29.4362 18.5792 29.611C18.8685 29.7918 18.9649 30.1715 18.7841 30.4608ZM20.9116 28.0862C20.6163 28.5744 20.0739 28.8757 19.4893 28.8757C18.9047 28.8757 18.3562 28.5744 18.0609 28.0862C17.8801 27.7969 17.9765 27.4233 18.2658 27.2425C18.5611 27.0617 18.9348 27.1581 19.1156 27.4474C19.2603 27.6824 19.7183 27.6884 19.8629 27.4474C20.0437 27.1581 20.4234 27.0677 20.7127 27.2425C21.002 27.4172 21.0924 27.7969 20.9116 28.0862Z" fill="#F79122"/>
</svg>
