<svg width="41" height="49" viewBox="0 0 41 49" fill="none" xmlns="http://www.w3.org/2000/svg">
<ellipse cx="20.0103" cy="24.5474" rx="20.0103" ry="20.0103" fill="#E7F3FF"/>
<ellipse cx="20.0103" cy="24.5474" rx="20.0103" ry="20.0103" fill="#FFDE9D"/>
<path d="M5.14062 21.59C5.14062 25.4767 8.30513 28.6487 12.1993 28.6487C14.0608 28.6487 15.751 27.9264 17.0168 26.75C17.0243 26.7351 17.0317 26.7276 17.0392 26.7202C17.0541 26.7127 17.0615 26.7053 17.0689 26.6904C17.0764 26.6829 17.0838 26.6755 17.0913 26.6755C18.4241 25.3874 19.258 23.5929 19.258 21.59C19.258 17.7032 16.0935 14.5312 12.1993 14.5312C10.9559 14.5312 9.78686 14.8589 8.76677 15.4173C6.60747 16.6384 5.14062 18.9467 5.14062 21.59ZM9.4369 16.8469C9.95812 16.8469 10.4421 17.0182 10.8293 17.3309C11.2611 17.1894 11.7153 17.115 12.1919 17.115C14.6639 17.115 16.6669 19.1179 16.6669 21.5825C16.6669 24.0471 14.6639 26.05 12.1919 26.05C9.72729 26.05 7.72435 24.0471 7.72435 21.5825C7.72435 21.2698 7.75413 20.9571 7.82115 20.6741C7.41907 20.2646 7.17335 19.7136 7.17335 19.103C7.17335 17.8596 8.19344 16.8469 9.4369 16.8469Z" fill="#004171"/>
<path d="M9.2511 21.3454C9.24365 21.4273 9.24365 21.5018 9.24365 21.5912C9.24365 23.2144 10.569 24.5397 12.1922 24.5397C13.8229 24.5397 15.1482 23.2144 15.1482 21.5912C15.1482 19.9679 13.8229 18.6426 12.1922 18.6426C12.0135 18.6426 11.8348 18.6575 11.6636 18.6947C11.6859 18.8287 11.7008 18.9702 11.7008 19.1042C11.7008 20.3477 10.6882 21.3603 9.44469 21.3603C9.37023 21.3603 9.31066 21.3603 9.2511 21.3454Z" fill="#004171"/>
<path d="M9.02 19.7149C9.03489 19.7223 9.04234 19.7298 9.05723 19.7372H9.06468C9.17637 19.8042 9.30295 19.8415 9.43697 19.8415C9.83905 19.8415 10.1741 19.5064 10.1741 19.1043C10.1741 18.9554 10.1294 18.8065 10.0475 18.6948C10.0401 18.6725 10.0252 18.6576 10.0103 18.6427C9.87628 18.4789 9.66779 18.3672 9.43697 18.3672C9.02745 18.3672 8.69238 18.6948 8.69238 19.1043C8.69238 19.3575 8.82641 19.5809 9.02 19.7149Z" fill="#004171"/>
<path d="M31.2762 15.4322C31.2687 15.4322 31.2687 15.4248 31.2613 15.4248C31.2241 15.4099 31.1794 15.3875 31.1496 15.3652C30.1593 14.8365 29.0275 14.5312 27.8213 14.5312C23.9345 14.5312 20.77 17.6958 20.77 21.59C20.77 23.5855 21.604 25.4023 22.9517 26.6904C22.9591 26.6978 22.974 26.7127 22.9815 26.7202C24.2398 27.919 25.9449 28.6487 27.8213 28.6487C31.7155 28.6487 34.88 25.4842 34.88 21.59C34.88 18.9541 33.428 16.6533 31.2762 15.4322ZM27.8213 26.0575C25.3567 26.0575 23.3537 24.0545 23.3537 21.59C23.3537 21.2772 23.3835 20.9645 23.4505 20.6816C23.0485 20.272 22.8027 19.721 22.8027 19.1105C22.8027 17.867 23.8154 16.8544 25.0589 16.8544C25.5801 16.8544 26.064 17.0256 26.4512 17.3384C26.8831 17.1969 27.3447 17.1224 27.8213 17.1224C30.2933 17.1224 32.2963 19.1254 32.2963 21.59C32.2963 24.0471 30.2933 26.0575 27.8213 26.0575Z" fill="#004171"/>
<path d="M27.821 18.6426C27.6423 18.6426 27.4636 18.6575 27.2923 18.6947C27.3147 18.8287 27.3296 18.9702 27.3296 19.1042C27.3296 20.3477 26.3095 21.3603 25.066 21.3603C25.0065 21.3603 24.9469 21.3603 24.8873 21.3454C24.8799 21.4273 24.8799 21.5018 24.8799 21.5912C24.8799 23.2144 26.2053 24.5397 27.8285 24.5397C29.4591 24.5397 30.7845 23.2144 30.7845 21.5912C30.777 19.9605 29.4591 18.6426 27.821 18.6426Z" fill="#004171"/>
<path d="M25.8103 19.1043C25.8103 18.9554 25.7657 18.8065 25.6838 18.6948C25.6763 18.6725 25.6614 18.6576 25.6465 18.6427C25.5125 18.4789 25.304 18.3672 25.0658 18.3672C24.6637 18.3672 24.3286 18.6948 24.3286 19.1043C24.3286 19.3575 24.4552 19.5809 24.6562 19.7149C24.6711 19.7298 24.686 19.7372 24.7009 19.7372C24.8052 19.8042 24.9392 19.8415 25.0658 19.8415C25.4753 19.8415 25.8103 19.5064 25.8103 19.1043Z" fill="#004171"/>
<path d="M8.08936 10.6152C8.23827 11.6651 8.4691 12.6256 8.76693 13.4893C8.77438 13.5042 8.77438 13.5266 8.78182 13.5415C8.80416 13.5936 8.81905 13.6457 8.84139 13.6978C9.87637 13.2585 11.0081 13.0128 12.1995 13.0128C15.6693 13.0128 18.67 15.0977 20.0177 18.0686C21.3579 15.0902 24.3586 13.0128 27.8284 13.0128C29.0198 13.0128 30.1515 13.2585 31.1865 13.6978C31.2088 13.6457 31.2237 13.5936 31.2461 13.5415C31.2535 13.5266 31.261 13.5117 31.261 13.4893C31.5588 12.6331 31.7822 11.6651 31.946 10.6152C31.4471 10.995 30.911 11.2779 30.3377 11.4715C28.5879 12.0895 26.8083 11.7545 25.2223 11.4641C23.0407 11.062 21.6558 10.8758 20.6133 12.1863C20.323 12.5437 19.7198 12.5437 19.4294 12.1863C18.3796 10.8833 16.9946 11.062 14.813 11.4641C13.2419 11.7545 11.4475 12.0895 9.69767 11.4715C9.11689 11.2705 8.58078 10.995 8.08936 10.6152Z" fill="#004171"/>
<path d="M20.0175 30.6083C20.4568 29.9754 21.1716 28.8437 21.5886 27.4662C20.9408 26.7812 20.4047 25.9845 20.0175 25.1133C19.6229 25.9919 19.0942 26.7812 18.439 27.4736C18.8559 28.8437 19.5633 29.9754 20.0175 30.6083Z" fill="#004171"/>
<path d="M14.5301 9.96868C16.3618 9.63361 18.4094 9.25387 20.0178 10.6239C21.6186 9.25387 23.6662 9.63361 25.4979 9.96868C26.9648 10.2442 28.4763 10.5197 29.8463 10.0357C29.9804 9.99102 30.1144 9.9389 30.241 9.87933V6.35742L20.1443 8.15933C20.0997 8.16677 20.055 8.17422 20.0178 8.17422C19.9731 8.17422 19.9284 8.16677 19.8837 8.15933L9.78711 6.35742V9.87188C9.91369 9.93145 10.0477 9.98357 10.1817 10.0282C11.5592 10.5197 13.0707 10.2442 14.5301 9.96868Z" fill="#004171"/>
<path d="M14.7536 42.0527C14.1654 42.0527 13.6516 42.3804 13.3761 42.8643C13.3538 42.909 13.3314 42.9611 13.3091 43.0058C13.2346 43.1994 13.1899 43.393 13.1899 43.6164V46.8032C13.1899 46.9596 13.2123 47.1234 13.257 47.2649C13.2644 47.2797 13.2718 47.3021 13.2718 47.317C13.4952 47.9275 14.076 48.3669 14.7536 48.3669C15.6173 48.3669 16.3172 47.6669 16.3172 46.8032V43.6164C16.3172 42.7601 15.6173 42.0527 14.7536 42.0527Z" fill="#004171"/>
<path d="M26.6447 42.8643C26.3692 42.3804 25.8555 42.0527 25.2673 42.0527C24.4035 42.0527 23.7036 42.7601 23.7036 43.6164V46.8032C23.7036 46.9596 23.726 47.1234 23.7706 47.2649C23.7781 47.2797 23.7781 47.3021 23.7855 47.317C24.0014 47.9275 24.5822 48.3669 25.2673 48.3669C25.9448 48.3669 26.5256 47.9275 26.749 47.317C26.7564 47.3021 26.7564 47.2797 26.7639 47.2649C26.8086 47.1234 26.8309 46.9596 26.8309 46.8032V43.6164C26.8309 43.393 26.7862 43.1994 26.7118 43.0058C26.6894 42.9686 26.6671 42.909 26.6447 42.8643Z" fill="#004171"/>
<path d="M22.1844 46.7207H17.8286V46.8101C17.8286 47.3238 17.702 47.8153 17.4712 48.2397H22.5344C22.3036 47.8153 22.177 47.3313 22.177 46.8101V46.7207H22.1844Z" fill="#004171"/>
<path d="M34.0009 46.7207H28.3569V46.8101C28.3569 47.3238 28.2303 47.8153 27.9995 48.2397H34.0009C34.4179 48.2397 34.7604 47.8972 34.7604 47.4802C34.7604 47.0632 34.4179 46.7207 34.0009 46.7207Z" fill="#004171"/>
<path d="M11.6636 46.7207H6.02706C5.60264 46.7207 5.26758 47.0632 5.26758 47.4802C5.26758 47.8972 5.60264 48.2397 6.02706 48.2397H12.021C11.7902 47.8153 11.6636 47.3313 11.6636 46.8101V46.7207Z" fill="#004171"/>
<path d="M36.2423 10.8918V3.94477L37.8208 3.68417L20.0177 0.720703L2.19971 3.67672L7.06187 4.48088L7.18845 4.50322L20.0103 6.63274L32.8172 4.50322L32.9587 4.48088L34.9021 4.1607V10.8843C34.1947 11.1598 33.6809 11.8374 33.6809 12.6416C33.6809 13.6766 34.5223 14.5254 35.5647 14.5254C36.5997 14.5254 37.4411 13.6766 37.4411 12.6416C37.4486 11.8449 36.9422 11.1673 36.2423 10.8918Z" fill="#004171"/>
<path d="M33.8147 27.7188C32.2734 29.2377 30.1513 30.1684 27.8207 30.1684C25.9518 30.1684 24.2244 29.5653 22.8245 28.5527C22.348 29.8334 21.6928 30.8833 21.179 31.5981C20.911 31.9629 20.4716 32.1937 20.0174 32.1937C19.5558 32.1937 19.1239 31.9629 18.8559 31.5906C18.3421 30.8833 17.6794 29.8334 17.2029 28.5601C15.7882 29.5802 14.0682 30.1684 12.2067 30.1684C9.87615 30.1684 7.76151 29.2452 6.22021 27.7336C6.73398 33.3478 9.04965 38.4185 12.5269 41.5085C13.0928 40.9129 13.882 40.5406 14.7607 40.5406C16.4658 40.5406 17.8433 41.9255 17.8433 43.6232V44.3231C19.2878 44.6358 20.7546 44.6358 22.1991 44.3231V43.6232C22.1991 41.9181 23.584 40.5406 25.2817 40.5406C26.1603 40.5406 26.957 40.9129 27.5229 41.516C30.9927 38.4036 33.2935 33.333 33.8147 27.7188ZM18.5059 33.6382C18.8633 33.4149 19.325 33.534 19.5484 33.8914C19.7271 34.1818 20.2929 34.1892 20.4791 33.8914C20.695 33.534 21.1641 33.4223 21.5215 33.6382C21.8789 33.8616 21.9906 34.3233 21.7747 34.6807C21.4098 35.2838 20.7397 35.6561 20.0174 35.6561C19.2878 35.6561 18.6251 35.2912 18.2528 34.6807C18.0294 34.3233 18.1485 33.8542 18.5059 33.6382ZM12.996 34.6807C12.7726 34.3233 12.8843 33.8616 13.2491 33.6382C13.5991 33.4149 14.0682 33.534 14.2916 33.8914C14.4703 34.1818 15.0361 34.1892 15.2149 33.8914C15.4382 33.534 15.9073 33.4223 16.2647 33.6382C16.6221 33.8616 16.7338 34.3233 16.5179 34.6807C16.153 35.2838 15.4755 35.6561 14.7607 35.6561C14.0384 35.6486 13.3608 35.2763 12.996 34.6807ZM17.3891 38.5823C16.6594 38.5823 15.9967 38.2249 15.6244 37.6143C15.401 37.2569 15.5201 36.7878 15.8775 36.5645C16.2349 36.3411 16.6966 36.4602 16.92 36.8176C17.0987 37.1155 17.6645 37.1229 17.8507 36.8176C18.0666 36.4602 18.5357 36.3485 18.8931 36.5645C19.2505 36.7878 19.3622 37.2569 19.1463 37.6143C18.774 38.21 18.0964 38.5823 17.3891 38.5823ZM21.7672 40.548C21.4024 41.1511 20.7323 41.5234 20.01 41.5234C19.2803 41.5234 18.6176 41.1586 18.2453 40.5555C18.022 40.1906 18.1411 39.729 18.4985 39.5056C18.8559 39.2822 19.3175 39.4014 19.5409 39.7588C19.7196 40.0566 20.2855 40.0566 20.4716 39.7588C20.695 39.4014 21.1567 39.2897 21.5141 39.5056C21.8715 39.729 21.9906 40.1906 21.7672 40.548ZM24.3956 37.6143C24.0308 38.21 23.3607 38.5823 22.6384 38.5823C21.9162 38.5823 21.2386 38.21 20.8737 37.6143C20.6504 37.2569 20.7695 36.7878 21.1269 36.5645C21.4843 36.3411 21.9534 36.4602 22.1768 36.8176C22.348 37.1155 22.9213 37.1229 23.1 36.8176C23.3234 36.4602 23.7851 36.3485 24.1425 36.5645C24.4999 36.7878 24.619 37.2569 24.3956 37.6143ZM27.024 34.6807C26.6592 35.2838 25.9891 35.6561 25.2668 35.6561C24.5446 35.6561 23.867 35.2838 23.5021 34.6807C23.2787 34.3233 23.3979 33.8616 23.7553 33.6382C24.1201 33.4149 24.5818 33.534 24.8052 33.8914C24.9839 34.1818 25.5497 34.1892 25.7284 33.8914C25.9518 33.534 26.4209 33.4223 26.7783 33.6382C27.1357 33.8542 27.2474 34.3233 27.024 34.6807Z" fill="#004171"/>
</svg>
