<svg width="12" height="12" viewBox="0 0 12 12" fill="none" xmlns="http://www.w3.org/2000/svg">
<path d="M5.04894 1.39189C5.3483 0.470582 6.6517 0.470584 6.95106 1.39189L7.5716 3.30173C7.70547 3.71375 8.08943 3.99271 8.52265 3.99271H10.5308C11.4995 3.99271 11.9023 5.23232 11.1186 5.80172L9.49395 6.98207C9.14347 7.23671 8.99681 7.68808 9.13068 8.1001L9.75122 10.0099C10.0506 10.9312 8.9961 11.6974 8.21238 11.128L6.58778 9.94762C6.2373 9.69298 5.7627 9.69298 5.41221 9.94762L3.78761 11.128C3.0039 11.6974 1.94942 10.9312 2.24878 10.0099L2.86932 8.1001C3.00319 7.68808 2.85653 7.23671 2.50604 6.98207L0.881445 5.80172C0.0977311 5.23232 0.500508 3.99271 1.46923 3.99271H3.47735C3.91057 3.99271 4.29453 3.71375 4.4284 3.30172L5.04894 1.39189Z" fill="#FFCC01"/>
</svg>
