<svg width="12" height="13" viewBox="0 0 12 13" fill="none" xmlns="http://www.w3.org/2000/svg">
<g clip-path="url(#clip0)">
<path d="M5.99975 0.9375C3.60339 0.9375 1.65381 2.88708 1.65381 5.28342C1.65381 8.25736 5.543 12.6233 5.70859 12.8077C5.86412 12.9809 6.13567 12.9806 6.29092 12.8077C6.4565 12.6233 10.3457 8.25736 10.3457 5.28342C10.3457 2.88708 8.3961 0.9375 5.99975 0.9375ZM5.99975 7.46998C4.79408 7.46998 3.81322 6.48909 3.81322 5.28342C3.81322 4.07775 4.79411 3.09689 5.99975 3.09689C7.2054 3.09689 8.18626 4.07777 8.18626 5.28345C8.18626 6.48912 7.2054 7.46998 5.99975 7.46998Z" fill="white"/>
</g>
<defs>
<clipPath id="clip0">
<rect width="12" height="12" fill="white" transform="translate(-0.000244141 0.9375)"/>
</clipPath>
</defs>
</svg>
