<svg width="16" height="17" viewBox="0 0 16 17" fill="none" xmlns="http://www.w3.org/2000/svg">
<path d="M12.2907 16.5H12.2671C9.03302 16.4204 5.94675 15.129 3.61965 12.8817C1.37151 10.5567 0.0794201 7.47164 -0.000395026 4.23847C-0.00515757 3.78555 0.172672 3.34978 0.493025 3.02958L2.7778 0.746482C3.10655 0.417839 3.63944 0.417839 3.96818 0.746482L7.33557 4.11388C7.66422 4.44262 7.66422 4.97551 7.33557 5.30425L5.99198 6.64532C6.24118 7.57633 6.70021 8.43795 7.33389 9.16413C8.05876 9.79804 8.91927 10.2574 9.84933 10.5069L11.1963 9.16497C11.525 8.83633 12.0579 8.83633 12.3867 9.16497L15.7541 12.5324C16.0827 12.8611 16.0827 13.394 15.7541 13.7227L13.4693 16.0067C13.1578 16.3214 12.7336 16.499 12.2907 16.5ZM3.37131 2.53289H3.3671L1.6834 4.21995C1.75205 7.01376 2.86731 9.67993 4.80834 11.6905C6.81904 13.6309 9.48468 14.746 12.2781 14.8155L13.9677 13.1276L11.7856 10.9514L10.6971 12.039C10.5414 12.1965 10.3292 12.2853 10.1078 12.2857C10.0486 12.2857 9.98967 12.2795 9.93184 12.2672C8.529 11.9569 7.22646 11.2995 6.14352 10.3553C5.19934 9.2724 4.54199 7.96986 4.23168 6.56703C4.17314 6.28818 4.25962 5.99864 4.4615 5.79757L5.54917 4.70906L3.37131 2.53289Z" fill="white"/>
</svg>
