<svg width="24" height="24" viewBox="0 0 24 24" fill="none" xmlns="http://www.w3.org/2000/svg">
<path fill-rule="evenodd" clip-rule="evenodd" d="M12.9701 12.9698C14.4689 11.4709 14.4689 9.04081 12.9701 7.54197C11.4713 6.04313 9.04116 6.04313 7.54232 7.54197C6.04348 9.04081 6.04348 11.4709 7.54232 12.9698C9.04116 14.4686 11.4713 14.4686 12.9701 12.9698ZM14.3843 14.384C16.6642 12.1041 16.6642 8.40764 14.3843 6.12775C12.1044 3.84786 8.408 3.84787 6.12811 6.12775C3.84822 8.40764 3.84822 12.1041 6.12811 14.384C8.408 16.6639 12.1044 16.6639 14.3843 14.384Z" fill="#363C4A"/>
<rect x="13.0083" y="14.3848" width="1.94601" height="8.75703" transform="rotate(-45 13.0083 14.3848)" fill="#363C4A"/>
</svg>
