<?xml version="1.0" standalone="no"?>
<!DOCTYPE svg PUBLIC "-//W3C//DTD SVG 20010904//EN"
 "http://www.w3.org/TR/2001/REC-SVG-20010904/DTD/svg10.dtd">
<svg version="1.0" xmlns="http://www.w3.org/2000/svg"
 width="1152.000000pt" height="1152.000000pt" viewBox="0 0 1152.000000 1152.000000"
 preserveAspectRatio="xMidYMid meet">
<metadata>
Created by potrace 1.11, written by Peter Selinger 2001-2013
</metadata>
<g transform="translate(0.000000,1152.000000) scale(0.100000,-0.100000)"
fill="#000000" stroke="none">
<path d="M5631 10549 c-25 -5 -61 -11 -81 -14 -20 -3 -45 -7 -57 -9 -26 -5
-82 -14 -130 -21 -21 -3 -51 -9 -68 -12 -16 -4 -37 -7 -45 -9 -8 -1 -33 -5
-55 -8 -22 -3 -51 -8 -65 -11 -14 -3 -43 -7 -65 -10 -22 -2 -65 -9 -95 -15
-30 -6 -71 -13 -90 -16 -19 -3 -86 -14 -149 -25 -62 -11 -116 -17 -119 -14 -3
2 -10 1 -16 -4 -6 -5 -33 -12 -61 -15 -27 -4 -70 -11 -94 -15 -25 -5 -51 -7
-58 -4 -7 3 -13 1 -13 -5 0 -5 -10 -10 -22 -10 -13 0 -39 -3 -58 -6 -19 -3
-51 -8 -70 -12 -19 -3 -48 -7 -65 -9 -16 -3 -41 -7 -55 -10 -14 -3 -38 -7 -55
-9 -16 -3 -46 -7 -65 -10 -73 -13 -146 -26 -180 -31 -19 -3 -46 -7 -60 -10
-14 -3 -41 -7 -60 -10 -19 -3 -60 -10 -90 -15 -30 -5 -73 -12 -95 -15 -22 -4
-51 -8 -65 -11 -64 -12 -107 -18 -127 -18 -13 -1 -23 -3 -23 -6 0 -3 -8 -6
-17 -6 -26 -1 -112 -14 -158 -24 -22 -5 -60 -11 -85 -15 -25 -3 -67 -10 -95
-15 -58 -11 -117 -20 -160 -26 -16 -2 -52 -8 -80 -14 -27 -5 -68 -12 -90 -15
-22 -2 -50 -7 -61 -9 -12 -2 -37 -7 -55 -10 -19 -3 -47 -8 -64 -11 -46 -8 -86
-14 -130 -20 -22 -4 -47 -8 -55 -10 -8 -2 -37 -7 -65 -11 -27 -3 -53 -8 -57
-10 -3 -2 -28 -7 -55 -10 -26 -3 -55 -7 -63 -9 -18 -5 -61 -12 -115 -20 -51
-6 -150 -23 -175 -30 -3 0 -30 -5 -60 -9 -30 -4 -64 -10 -75 -11 -11 -2 -38
-7 -60 -10 -38 -5 -60 -9 -115 -20 -14 -3 -45 -8 -70 -11 -25 -3 -52 -7 -60
-9 -8 -2 -31 -7 -50 -10 -19 -3 -60 -10 -90 -15 -30 -5 -71 -12 -90 -15 -19
-3 -61 -10 -94 -15 -32 -6 -61 -8 -64 -5 -3 2 -10 1 -16 -4 -6 -5 -31 -11 -56
-15 -43 -5 -76 -10 -140 -21 -68 -11 -86 -14 -105 -18 -28 -6 -101 -18 -128
-21 -23 -3 -99 -16 -132 -22 -11 -3 -36 -7 -55 -10 -56 -9 -83 -13 -110 -19
-24 -5 -82 -14 -107 -17 -20 -2 -6 -11 20 -13 20 -2 50 -6 142 -21 17 -3 44
-7 60 -10 17 -2 42 -7 57 -10 15 -3 42 -7 60 -10 18 -3 42 -7 53 -8 71 -12
156 -26 189 -32 21 -3 48 -8 60 -10 11 -2 41 -7 66 -9 25 -3 52 -8 60 -10 8
-3 33 -7 55 -10 22 -4 47 -8 55 -10 8 -2 38 -7 65 -11 28 -3 59 -8 70 -10 11
-3 36 -7 55 -9 19 -3 60 -10 90 -15 65 -11 89 -15 240 -41 63 -11 131 -22 150
-24 19 -3 46 -7 58 -10 13 -3 43 -8 65 -11 44 -6 66 -10 107 -18 13 -3 39 -7
57 -8 18 -1 33 -5 33 -8 0 -3 10 -5 23 -6 47 -2 87 -8 87 -14 0 -3 15 -6 33
-7 38 -1 81 -7 162 -21 33 -6 74 -13 90 -15 17 -3 73 -13 125 -22 52 -9 106
-18 120 -20 14 -2 52 -8 85 -14 76 -13 131 -22 215 -36 19 -3 47 -8 63 -10 15
-3 42 -7 60 -10 17 -3 46 -8 62 -10 17 -2 44 -6 60 -10 17 -3 44 -8 60 -10 17
-2 44 -6 60 -9 45 -9 235 -41 300 -51 11 -2 52 -9 90 -16 39 -6 84 -14 100
-16 17 -1 41 -5 55 -7 14 -3 42 -7 64 -11 21 -4 48 -9 60 -11 11 -3 35 -7 51
-9 17 -2 41 -6 55 -9 14 -3 43 -8 65 -11 75 -11 100 -15 125 -20 14 -3 39 -7
55 -10 17 -3 44 -7 60 -10 84 -14 112 -18 138 -19 15 -1 27 -4 27 -7 0 -3 6
-6 13 -6 11 0 37 -4 127 -19 14 -2 39 -6 55 -8 17 -2 46 -7 65 -11 19 -3 46
-8 60 -10 44 -6 104 -16 130 -21 14 -3 52 -9 85 -14 33 -5 87 -15 120 -20 33
-6 87 -15 120 -20 33 -5 71 -12 85 -15 14 -3 41 -7 60 -10 19 -2 49 -7 65 -10
17 -3 44 -7 60 -10 17 -3 41 -8 55 -11 104 -23 231 -22 320 1 15 4 74 14 120
20 14 2 39 6 55 9 48 9 98 18 130 23 17 2 80 12 140 23 61 10 130 22 155 25
25 3 52 8 60 10 8 2 33 6 55 10 22 3 54 8 70 11 17 4 44 7 60 9 17 1 30 4 30
5 0 2 32 8 85 15 25 3 70 11 100 17 30 6 58 11 62 10 4 -1 38 4 75 12 38 8 88
17 113 20 25 3 55 8 66 10 12 2 37 7 55 10 19 3 48 8 64 12 17 3 44 7 60 9 17
2 39 6 51 9 19 4 108 17 144 20 9 1 20 5 25 8 6 3 18 4 28 3 9 -2 17 0 17 3 0
4 15 7 33 6 17 0 41 3 52 7 11 4 40 9 65 13 25 3 56 8 70 11 14 3 43 7 65 10
22 3 51 8 65 10 14 3 39 8 55 10 17 3 41 7 55 10 14 3 41 7 60 10 19 3 46 7
60 10 14 2 40 7 58 10 17 3 47 8 65 11 17 3 43 7 57 9 28 3 142 22 180 30 14
3 45 8 70 11 25 3 54 8 65 10 23 5 195 34 240 40 17 3 80 14 141 24 61 11 128
22 149 26 61 9 74 12 87 20 7 5 8 3 3 -6 -5 -9 -4 -11 4 -6 6 4 24 9 39 12 15
2 63 11 107 19 44 7 98 16 120 20 22 3 65 10 95 15 30 5 73 12 95 15 22 3 47
7 55 10 8 2 37 7 64 10 27 3 51 7 55 9 3 2 29 7 56 10 28 4 63 9 78 12 43 9
78 15 112 18 17 2 30 5 30 6 0 2 25 6 89 14 26 3 57 8 67 11 12 4 19 1 20 -7
1 -7 2 -491 3 -1075 l1 -1062 -55 -28 c-30 -15 -57 -30 -60 -33 -3 -3 -23 -18
-44 -34 -22 -17 -52 -44 -68 -60 -29 -32 -115 -157 -111 -163 1 -1 -5 -19 -13
-40 -9 -20 -18 -45 -20 -55 -2 -10 -7 -28 -10 -40 -8 -32 -12 -181 -5 -193 3
-5 6 -16 7 -25 5 -44 17 -86 38 -135 81 -181 245 -313 441 -353 17 -3 73 -6
125 -5 78 0 110 5 175 28 80 28 137 58 168 90 10 9 17 13 17 9 0 -15 107 108
139 161 77 127 106 299 74 440 -38 169 -158 323 -316 405 l-52 27 -1 1111 0
1112 20 2 c25 1 33 3 66 11 14 4 43 9 65 11 22 3 40 5 40 6 0 1 9 3 20 4 11 1
38 6 60 10 22 5 51 10 65 11 105 15 140 22 148 30 3 3 -6 5 -19 6 -13 0 -33 2
-44 5 -11 2 -36 6 -55 9 -19 3 -46 7 -60 10 -14 3 -54 10 -90 15 -36 6 -76 13
-90 15 -14 3 -68 12 -120 21 -52 8 -106 18 -120 20 -14 3 -49 7 -77 11 -29 3
-53 9 -53 12 0 3 -17 6 -38 7 -20 1 -50 4 -67 7 -30 6 -56 11 -125 22 -19 3
-71 12 -115 20 -44 7 -98 16 -119 20 -21 3 -48 7 -60 10 -27 6 -92 16 -131 21
-16 2 -43 6 -60 9 -16 2 -41 7 -55 9 -14 3 -25 5 -25 6 0 1 -11 3 -25 5 -30 4
-86 13 -120 18 -14 3 -47 8 -75 12 -27 3 -59 9 -70 12 -11 4 -31 7 -45 8 -14
1 -52 7 -85 13 -33 6 -76 13 -96 16 -20 3 -42 7 -50 10 -8 3 -32 7 -54 10 -74
9 -123 17 -185 30 -14 3 -43 8 -65 11 -69 10 -99 15 -125 20 -14 3 -45 8 -68
10 -24 3 -47 7 -50 9 -4 2 -34 7 -67 11 -32 3 -63 9 -67 11 -4 3 -26 7 -49 9
-23 2 -49 7 -58 9 -9 3 -34 8 -56 11 -23 3 -52 8 -65 10 -14 3 -43 8 -65 11
-22 3 -49 8 -60 10 -11 1 -38 6 -60 9 -22 3 -50 8 -62 10 -13 3 -33 7 -45 10
-13 2 -40 7 -60 9 -38 5 -78 11 -133 21 -16 3 -43 8 -60 10 -16 3 -41 7 -55
10 -14 3 -43 7 -65 10 -22 3 -53 9 -70 12 -16 4 -37 7 -45 8 -8 1 -35 5 -60 9
-25 4 -58 10 -75 12 -100 17 -119 20 -160 28 -16 3 -50 9 -75 12 -25 3 -54 8
-65 11 -11 2 -36 6 -55 9 -51 7 -82 12 -110 18 -23 4 -80 14 -125 21 -11 2
-33 6 -50 8 -70 13 -131 21 -137 19 -5 -1 -8 3 -8 9 0 5 -4 7 -10 4 -5 -3 -36
-1 -67 4 -32 6 -71 13 -88 16 -16 2 -41 7 -55 10 -14 3 -41 7 -60 10 -19 3
-46 7 -60 10 -14 3 -47 8 -75 11 -55 7 -80 12 -80 14 0 1 -11 3 -25 4 -14 2
-41 6 -60 9 -19 4 -53 9 -75 12 -22 4 -48 9 -58 11 -10 3 -35 8 -55 10 -20 3
-77 11 -127 19 -99 16 -92 16 -154 4z"/>
<path d="M2430 8677 c-1 -45 -1 -298 -1 -561 -1 -454 0 -480 18 -490 30 -18
194 -75 248 -86 65 -13 94 -19 125 -25 134 -23 414 -24 605 0 100 12 172 23
260 39 44 8 98 17 120 21 22 3 47 7 55 10 19 5 63 14 113 21 47 7 72 12 72 14
0 1 14 3 30 5 17 2 46 6 65 10 19 4 46 9 60 10 14 2 26 4 28 5 1 1 10 3 20 4
9 1 40 5 67 9 28 4 68 10 90 12 22 2 63 7 90 10 169 20 442 19 545 0 14 -3 40
-8 59 -11 18 -3 66 -14 105 -25 39 -11 78 -22 86 -24 8 -2 16 -4 18 -5 1 -2 5
-3 10 -5 46 -13 226 -103 250 -126 12 -10 25 -19 30 -19 4 0 17 -8 28 -18 10
-10 33 -27 49 -39 l31 -21 32 26 c18 15 45 36 60 48 31 24 192 115 207 118 6
1 16 5 22 9 32 20 205 69 288 82 17 3 57 9 90 14 56 9 444 7 510 -3 42 -6 113
-15 155 -20 42 -5 106 -15 140 -22 14 -3 36 -7 50 -9 14 -2 40 -6 58 -9 17 -3
46 -8 63 -11 17 -2 38 -6 48 -9 9 -3 36 -8 61 -11 25 -3 61 -10 80 -15 19 -5
53 -11 75 -15 22 -3 80 -12 129 -21 49 -8 108 -17 130 -19 23 -2 41 -4 41 -5
0 -9 203 -22 360 -22 157 0 257 8 350 29 17 4 32 7 35 8 3 1 21 5 40 9 38 8
193 61 225 77 20 10 20 19 18 567 0 306 -1 560 -2 563 -1 4 -34 0 -73 -7 -40
-8 -90 -16 -112 -19 -21 -3 -41 -7 -45 -9 -3 -2 -28 -7 -56 -10 -27 -4 -57 -9
-65 -11 -15 -4 -41 -9 -114 -20 -21 -4 -48 -9 -60 -11 -11 -2 -37 -7 -56 -10
-19 -3 -42 -7 -50 -9 -8 -2 -31 -7 -50 -10 -42 -7 -246 -43 -276 -49 -12 -3
-37 -7 -55 -10 -19 -3 -95 -16 -169 -30 -74 -13 -138 -22 -142 -19 -5 2 -8 -1
-8 -7 0 -6 -4 -9 -8 -6 -4 2 -37 -1 -72 -9 -36 -7 -83 -16 -105 -19 -22 -3
-53 -8 -70 -11 -131 -25 -365 -68 -385 -70 -21 -2 -108 -18 -225 -40 -16 -3
-39 -7 -50 -9 -24 -4 -81 -15 -115 -21 -14 -3 -41 -7 -60 -10 -19 -3 -46 -8
-60 -10 -78 -16 -191 -37 -225 -41 -16 -3 -52 -9 -80 -14 -27 -5 -66 -12 -85
-15 -19 -3 -42 -8 -50 -10 -8 -2 -31 -6 -50 -9 -19 -3 -94 -16 -167 -29 -124
-23 -137 -23 -210 -10 -43 8 -87 15 -98 17 -11 2 -33 6 -50 10 -29 6 -75 14
-125 21 -14 2 -25 4 -25 5 0 2 -31 8 -85 15 -24 3 -65 10 -90 15 -25 5 -58 12
-75 15 -16 3 -106 19 -198 35 -238 43 -240 43 -259 44 -10 0 -18 4 -18 9 0 4
-4 6 -9 2 -5 -3 -29 -1 -53 4 -45 10 -77 16 -142 26 -21 4 -48 9 -60 11 -11 3
-37 7 -56 10 -19 3 -55 9 -80 15 -25 5 -59 12 -75 14 -17 2 -79 13 -138 24
-60 11 -111 20 -115 19 -4 -1 -14 1 -22 4 -8 3 -49 11 -90 18 -86 13 -105 17
-140 25 -14 3 -41 7 -60 10 -19 3 -46 7 -60 10 -49 10 -195 36 -220 40 -14 2
-50 8 -80 14 -85 16 -124 23 -140 26 -8 1 -28 4 -45 8 -16 4 -48 9 -70 12 -23
3 -52 8 -65 11 -14 3 -36 7 -50 10 -14 2 -36 7 -50 9 -14 3 -41 7 -60 10 -19
3 -46 7 -60 10 -14 3 -36 8 -50 11 -57 10 -97 16 -125 21 -16 2 -36 6 -42 8
-10 3 -13 -17 -13 -78z"/>
<path d="M1893 7350 c3 -25 8 -56 10 -70 8 -51 19 -116 23 -135 2 -11 6 -31 9
-45 5 -29 21 -102 35 -162 5 -24 11 -52 14 -63 2 -11 9 -40 16 -65 7 -25 14
-52 15 -60 2 -8 4 -16 5 -17 2 -2 4 -7 5 -13 1 -5 4 -13 5 -17 1 -5 3 -12 4
-18 1 -5 5 -17 8 -25 10 -24 62 -194 64 -209 2 -8 9 -20 16 -27 11 -11 26 -9
88 17 72 29 310 104 360 113 14 2 36 7 50 10 14 3 36 8 50 10 14 3 34 7 46 10
12 2 45 7 74 11 29 4 61 8 70 10 95 18 435 24 585 10 74 -6 99 -10 165 -20 14
-3 37 -6 53 -7 15 -1 27 -5 27 -8 0 -3 17 -6 38 -8 47 -3 64 -6 77 -14 6 -3
29 -9 52 -13 92 -15 363 -111 503 -178 47 -23 88 -40 93 -39 4 1 7 -2 7 -8 0
-5 4 -10 9 -10 27 0 277 -158 405 -257 128 -97 299 -259 392 -369 23 -27 56
-65 73 -84 17 -19 31 -38 31 -42 0 -4 11 -18 24 -31 12 -13 25 -27 27 -33 2
-5 34 -54 70 -109 78 -117 96 -147 162 -278 l50 -99 28 62 c16 34 29 65 29 71
0 5 3 9 8 9 4 0 13 15 21 33 14 31 104 181 146 242 95 139 223 292 352 419
127 126 276 244 454 359 118 77 407 223 432 218 4 0 7 4 7 11 0 6 3 9 6 5 4
-3 19 0 35 9 16 8 29 12 29 9 0 -3 13 1 30 10 26 14 235 77 293 89 12 3 33 7
47 11 34 7 150 27 175 30 11 1 20 3 20 5 0 2 28 5 155 16 192 16 503 6 630
-20 37 -7 112 -17 133 -17 9 0 17 -5 17 -10 0 -6 4 -8 9 -5 10 6 94 -13 206
-47 39 -12 73 -22 78 -23 4 -1 9 -3 12 -4 3 -1 8 -3 13 -5 4 -1 15 -5 24 -9 9
-4 22 -9 30 -10 15 -3 35 -11 97 -38 36 -15 47 -16 57 -6 17 18 79 215 129
413 43 168 50 196 61 265 3 19 8 38 10 42 2 3 7 27 9 51 3 25 8 56 11 68 3 13
7 38 10 54 2 17 7 40 10 53 3 18 1 21 -8 15 -8 -4 -52 -33 -99 -65 -71 -46
-178 -108 -199 -113 -3 -1 -32 -14 -65 -29 -92 -43 -312 -114 -370 -120 -11
-1 -26 -6 -33 -10 -7 -4 -12 -5 -12 -3 0 2 -21 0 -47 -4 -170 -32 -567 -33
-783 -3 -14 2 -45 6 -70 9 -88 11 -220 33 -420 70 -47 9 -98 18 -115 21 -16 2
-46 7 -65 10 -19 4 -42 7 -50 9 -8 1 -26 5 -40 8 -14 4 -45 9 -70 12 -79 9
-134 16 -160 21 -154 29 -477 22 -585 -13 -19 -7 -31 -10 -57 -16 -35 -8 -137
-62 -192 -101 -55 -39 -102 -84 -193 -183 -64 -70 -188 -95 -278 -58 -24 10
-76 54 -130 109 -49 51 -112 108 -140 128 -52 37 -165 97 -196 104 -11 2 -28
6 -39 8 -11 3 -24 7 -29 11 -10 6 -48 12 -131 22 -123 14 -402 3 -540 -23 -14
-2 -41 -6 -60 -9 -83 -12 -122 -18 -230 -39 -14 -3 -36 -7 -50 -10 -14 -3 -42
-7 -64 -10 -21 -4 -41 -8 -45 -10 -3 -2 -26 -7 -51 -10 -25 -3 -56 -8 -70 -11
-14 -3 -41 -7 -60 -10 -19 -3 -46 -7 -60 -10 -32 -6 -84 -14 -140 -21 -25 -2
-63 -7 -85 -11 -22 -3 -59 -6 -82 -6 -24 -1 -43 -4 -43 -8 0 -3 -111 -5 -247
-4 -227 2 -314 7 -383 21 -14 3 -38 7 -55 10 -16 3 -57 12 -90 20 -87 22 -90
22 -92 24 -2 2 -6 3 -10 4 -52 12 -168 57 -286 110 -32 14 -62 26 -67 26 -6 0
-10 3 -10 8 0 4 -21 18 -47 32 -27 13 -50 27 -53 30 -3 3 -23 17 -45 30 -22
13 -51 33 -64 44 l-23 21 5 -45z"/>
<path d="M3029 6136 c-2 -2 -35 -7 -74 -10 -69 -5 -183 -24 -292 -50 -81 -19
-122 -31 -145 -43 -15 -7 -29 -13 -30 -12 -10 6 -232 -81 -236 -93 -2 -4 -10
-8 -17 -8 -8 0 -34 -11 -58 -25 -25 -13 -47 -21 -51 -18 -3 4 -6 2 -6 -4 0 -6
-15 -17 -32 -24 -18 -7 -42 -21 -52 -31 -11 -10 -26 -18 -33 -18 -7 0 -13 -3
-13 -8 0 -4 -17 -16 -37 -27 -20 -11 -41 -24 -47 -30 -6 -5 -47 -37 -91 -70
-82 -62 -285 -258 -344 -332 -29 -38 -52 -66 -80 -99 -21 -26 -130 -192 -146
-224 -10 -19 -21 -37 -24 -40 -9 -7 -96 -193 -121 -260 -26 -66 -64 -178 -81
-240 -7 -25 -13 -47 -14 -50 -4 -14 -19 -88 -21 -105 -1 -11 -3 -20 -4 -20 -1
0 -3 -9 -6 -20 -3 -19 -6 -43 -22 -180 -8 -75 -7 -359 1 -440 4 -33 8 -76 11
-95 2 -20 6 -49 10 -65 4 -17 9 -41 11 -55 19 -99 67 -271 95 -335 4 -11 15
-38 23 -60 25 -66 77 -175 125 -260 42 -74 157 -254 171 -265 3 -3 22 -25 41
-50 89 -116 338 -360 366 -360 5 0 15 -9 22 -20 7 -11 19 -20 27 -20 8 0 15
-3 15 -7 0 -5 25 -24 55 -43 30 -19 55 -38 55 -42 0 -5 6 -8 14 -8 8 0 21 -6
28 -12 26 -24 276 -152 338 -173 12 -4 47 -18 65 -25 33 -14 238 -75 285 -85
30 -6 75 -14 113 -20 15 -3 42 -7 60 -10 145 -25 463 -24 627 0 19 3 49 8 65
10 50 7 130 22 130 25 0 2 16 5 58 13 107 21 414 146 552 225 166 95 339 227
469 359 143 146 135 136 211 238 36 50 72 97 79 105 7 9 15 22 19 30 4 8 16
29 27 45 11 17 29 48 41 70 12 22 26 43 31 46 5 3 9 8 7 10 -1 2 19 47 44 100
26 53 47 100 47 104 0 4 6 21 14 38 23 51 78 225 91 287 2 8 8 35 14 60 19 85
22 106 37 230 11 97 7 515 -5 515 -1 0 -4 18 -5 40 -3 35 -10 75 -32 185 -8
38 -40 150 -58 200 -9 25 -16 53 -16 63 0 9 -5 17 -10 17 -6 0 -9 3 -8 8 3 16
-80 211 -101 236 -9 10 -15 21 -14 25 8 20 -193 323 -264 398 -13 13 -23 27
-23 30 0 13 -251 252 -313 297 -37 28 -67 54 -67 59 0 4 -4 5 -10 2 -5 -3 -10
-1 -10 4 0 6 -6 11 -14 11 -8 0 -16 4 -18 8 -3 8 -95 72 -104 72 -2 0 -21 11
-42 23 -39 25 -173 94 -232 120 -35 16 -90 39 -100 42 -3 1 -12 4 -20 8 -71
27 -250 78 -325 91 -16 3 -39 8 -50 10 -11 2 -40 7 -65 11 -25 4 -54 9 -65 12
-25 6 -441 14 -446 9z m-639 -741 c25 0 51 -4 58 -9 7 -5 15 -6 18 -3 14 13
207 -71 262 -114 25 -19 63 -25 76 -12 3 4 17 8 29 10 12 2 38 8 57 13 33 8
90 18 155 26 45 5 287 6 312 0 11 -2 43 -8 70 -12 26 -3 55 -8 63 -9 13 -3
145 -39 175 -49 48 -15 205 -87 237 -108 14 -10 31 -18 37 -18 6 0 11 -4 11
-10 0 -5 6 -10 13 -10 7 0 28 -13 47 -30 19 -16 38 -29 43 -30 28 -1 252 -231
313 -321 27 -41 52 -76 55 -79 9 -8 110 -213 113 -230 2 -8 8 -28 15 -45 11
-26 38 -122 46 -165 2 -8 4 -15 5 -15 1 0 4 -13 5 -30 2 -16 7 -52 12 -80 15
-95 8 -351 -13 -446 -3 -13 -7 -35 -10 -49 -3 -14 -8 -34 -11 -45 -4 -11 -7
-22 -8 -25 -8 -39 -19 -77 -25 -90 -4 -8 -12 -26 -17 -40 -21 -52 -97 -210
-103 -210 -3 0 -11 -14 -19 -32 -8 -17 -20 -38 -28 -47 -7 -9 -40 -50 -73 -92
-48 -61 -150 -165 -224 -226 -30 -25 -163 -111 -216 -139 -239 -129 -523 -187
-790 -163 -87 8 -155 17 -155 19 0 2 -18 6 -60 15 -46 10 -60 13 -62 14 -2 1
-6 1 -10 2 -5 0 -24 8 -43 16 -19 8 -42 16 -51 18 -18 4 -186 85 -234 113 -38
22 -128 84 -135 92 -3 3 -16 14 -29 23 -63 43 -229 219 -262 278 -9 16 -19 26
-23 22 -3 -3 -6 -1 -6 6 0 7 -8 25 -19 39 -29 43 -103 182 -95 182 3 0 1 7 -6
15 -7 8 -9 15 -4 15 4 0 -1 7 -12 15 -10 8 -16 15 -12 15 3 0 -4 29 -17 65
-50 137 -70 266 -70 450 0 150 4 201 19 281 2 12 -7 33 -22 51 -54 62 -62 73
-62 82 0 5 -4 11 -8 13 -22 9 -93 191 -97 248 0 14 -4 30 -7 36 -14 21 1 220
20 286 53 177 181 343 324 420 24 13 45 26 49 30 6 9 133 54 175 63 16 3 57 8
92 10 35 2 66 6 70 9 3 4 8 3 11 -1 3 -5 26 -8 51 -8z"/>
<path d="M2259 4905 c-25 -6 -58 -20 -75 -32 -33 -24 -91 -83 -81 -83 3 0 -1
-17 -10 -37 -33 -80 -6 -183 64 -248 21 -19 43 -35 48 -35 6 0 21 -6 35 -13
33 -18 126 -14 172 6 50 23 104 80 124 133 29 75 4 205 -44 234 -9 5 -12 10
-7 10 13 0 -42 38 -75 51 -58 24 -98 28 -151 14z"/>
<path d="M3140 4824 c-8 -2 -36 -6 -62 -9 l-47 -6 4 -57 c2 -31 5 -59 6 -62 1
-3 0 -9 -1 -15 -1 -5 -3 -35 -5 -65 -6 -106 -56 -244 -123 -342 -38 -56 -129
-146 -179 -179 -59 -40 -98 -63 -103 -64 -3 0 -30 -11 -62 -22 -78 -31 -177
-49 -251 -47 l-64 1 3 -88 c2 -71 10 -144 19 -179 1 -3 5 -23 10 -45 5 -22 10
-42 10 -45 2 -7 15 -38 33 -80 8 -19 16 -37 16 -40 2 -15 80 -139 109 -175 37
-46 144 -155 152 -155 3 0 14 -8 24 -17 24 -22 40 -34 72 -53 29 -17 148 -80
152 -79 3 0 31 -9 55 -18 22 -8 22 -8 122 -29 68 -15 225 -19 285 -8 17 3 41
6 55 8 14 1 31 6 38 10 7 4 12 5 12 2 0 -9 133 40 200 73 110 55 247 165 320
257 56 71 146 239 156 289 1 6 3 13 4 18 1 4 4 12 5 17 1 6 4 13 5 18 2 4 4
12 5 17 2 6 4 12 5 15 10 27 22 138 22 218 1 67 -3 106 -18 186 -15 79 -58
192 -106 278 -55 97 -186 241 -269 294 -24 16 -46 31 -49 34 -16 16 -109 62
-165 81 -22 8 -43 18 -47 24 -4 5 -8 7 -8 3 0 -3 -24 0 -52 8 -74 19 -242 36
-288 28z"/>
<path d="M7970 6129 c-30 -4 -76 -9 -101 -13 -92 -12 -214 -39 -314 -70 -5 -1
-30 -8 -55 -15 -25 -7 -51 -18 -57 -23 -7 -6 -13 -7 -13 -3 0 4 -6 2 -13 -4
-8 -6 -22 -12 -33 -14 -40 -8 -306 -137 -335 -163 -8 -8 -19 -14 -23 -14 -11
0 -162 -106 -241 -169 -78 -62 -271 -252 -325 -320 -19 -24 -61 -80 -92 -125
-32 -44 -61 -85 -66 -91 -14 -18 -92 -153 -92 -159 0 -4 -11 -24 -25 -46 -14
-22 -23 -40 -20 -40 3 0 -5 -19 -18 -42 -46 -85 -129 -332 -153 -453 -2 -11
-8 -42 -13 -70 -27 -136 -36 -241 -35 -420 0 -193 7 -254 50 -480 8 -45 53
-206 67 -240 6 -16 12 -32 13 -35 2 -11 16 -46 25 -62 5 -10 9 -22 9 -28 0 -5
19 -49 42 -97 24 -49 43 -90 43 -93 0 -3 13 -24 28 -47 15 -24 27 -45 27 -48
0 -5 85 -137 102 -160 5 -5 25 -32 45 -60 81 -110 209 -247 336 -358 33 -28
66 -58 73 -65 8 -7 14 -10 14 -6 0 4 8 -2 18 -12 9 -10 25 -23 34 -29 9 -5 47
-31 85 -57 105 -71 364 -208 394 -208 5 0 17 -4 27 -9 34 -17 110 -46 152 -56
3 -1 12 -4 20 -8 36 -14 232 -58 237 -53 4 3 11 2 17 -3 11 -9 33 -13 186 -28
91 -9 329 -9 425 1 96 9 130 13 130 16 0 1 11 3 25 5 14 1 36 5 50 8 14 3 48
10 75 16 28 6 60 12 71 15 53 11 280 91 286 100 4 6 8 8 8 4 0 -7 62 20 135
58 17 9 62 32 100 52 39 20 72 39 75 42 3 3 23 17 45 30 53 32 209 147 264
196 111 99 283 284 341 369 53 77 117 176 141 220 38 65 137 269 144 295 0 3
11 37 25 75 13 39 22 70 20 70 -2 0 2 10 9 23 7 13 14 31 16 40 1 9 10 43 18
74 8 31 12 59 9 62 -3 3 -1 6 4 6 5 0 10 10 10 23 2 27 12 93 19 127 25 117
25 489 0 640 -1 8 -5 38 -10 65 -4 28 -9 59 -12 70 -2 11 -6 31 -9 44 -3 14
-7 28 -9 31 -2 4 -7 20 -9 37 -12 64 -90 284 -128 360 -15 28 -24 54 -21 57 4
3 0 6 -7 6 -7 0 -11 3 -7 6 3 3 -8 27 -24 54 -16 26 -29 51 -29 55 0 12 -165
257 -194 288 -14 15 -26 32 -26 37 0 28 -399 400 -429 400 -5 0 -11 4 -13 8
-4 10 -102 76 -172 116 -128 74 -404 196 -443 196 -7 0 -21 4 -31 9 -15 8 -81
28 -121 36 -9 2 -37 8 -64 14 -26 6 -64 14 -83 17 -20 3 -46 8 -58 10 -72 16
-473 26 -566 13z m-500 -749 c72 -19 128 -39 173 -61 41 -21 97 -58 107 -70 3
-4 48 4 100 18 133 33 181 38 375 37 139 -1 188 -5 265 -23 52 -13 100 -24
105 -25 73 -15 332 -133 369 -168 11 -10 24 -18 28 -18 29 0 338 -285 338
-311 0 -4 6 -14 14 -21 25 -26 107 -159 145 -237 39 -80 96 -242 106 -301 3
-19 8 -42 11 -51 18 -61 26 -379 11 -469 -26 -161 -65 -284 -132 -420 -43 -87
-66 -131 -75 -140 -3 -3 -22 -30 -42 -60 -21 -31 -47 -67 -60 -80 -88 -99
-122 -133 -193 -193 -79 -67 -211 -154 -290 -190 -71 -33 -189 -79 -214 -84
-14 -2 -28 -6 -33 -9 -9 -6 -36 -12 -88 -20 -19 -3 -40 -7 -47 -9 -77 -26
-371 -26 -493 0 -34 7 -69 14 -104 20 -16 3 -70 22 -120 41 -50 19 -95 36
-101 37 -5 2 -35 16 -65 31 -30 16 -65 34 -77 40 -13 6 -23 14 -23 19 0 4 -5
7 -10 7 -15 0 -130 82 -130 92 0 4 -5 8 -12 8 -7 0 -21 9 -33 20 -11 11 -43
42 -70 68 -28 26 -73 74 -100 107 -28 33 -52 62 -55 65 -6 6 -68 103 -87 135
-67 118 -143 313 -157 400 -4 21 -8 40 -10 44 -11 17 -21 149 -21 276 0 124 4
168 20 266 3 18 -3 34 -24 55 -66 67 -144 218 -156 301 -2 11 -6 31 -10 44
-11 34 -13 185 -4 233 19 97 23 110 47 165 9 20 15 39 14 44 -1 4 2 7 8 7 6 0
10 5 10 11 0 7 16 35 35 63 113 168 290 283 480 312 22 3 41 7 43 8 7 8 194
-4 232 -14z"/>
<path d="M7297 4914 c-1 -1 -17 -5 -36 -7 -19 -3 -37 -11 -41 -17 -4 -7 -10
-10 -13 -8 -19 10 -106 -90 -115 -132 -18 -83 -2 -165 43 -221 24 -29 85 -74
85 -62 0 4 4 2 8 -5 5 -7 35 -14 74 -16 104 -6 186 42 229 133 56 119 3 259
-118 313 -36 16 -108 30 -116 22z"/>
<path d="M8147 4824 c-2 -1 -26 -4 -114 -14 -2 0 4 -70 7 -80 7 -22 -5 -181
-17 -214 -4 -12 -8 -23 -8 -26 -14 -51 -22 -74 -46 -122 -47 -97 -108 -174
-196 -250 -42 -36 -113 -80 -113 -71 0 5 -4 3 -8 -3 -24 -34 -205 -85 -314
-87 -86 -2 -80 5 -79 -82 0 -50 9 -143 15 -170 2 -11 9 -38 14 -60 24 -102
112 -278 174 -346 15 -16 28 -33 28 -36 0 -5 48 -51 106 -103 96 -84 262 -169
385 -196 89 -19 161 -27 234 -24 80 3 140 7 140 10 0 2 23 7 70 15 22 4 47 11
56 16 9 4 19 5 23 2 3 -3 6 -1 6 5 0 7 3 11 8 11 4 -1 10 0 15 1 4 1 11 3 15
4 12 2 96 40 107 48 6 5 39 27 74 50 126 82 255 229 320 364 103 213 124 455
60 679 -10 38 -16 53 -55 143 -17 38 -96 164 -117 188 -65 70 -154 154 -164
154 -7 0 -13 4 -13 8 0 10 -123 83 -170 102 -19 7 -39 17 -45 21 -16 11 -163
49 -214 55 -48 6 -180 12 -184 8z"/>
<path d="M5660 2669 c-46 -92 -98 -188 -110 -204 -4 -5 -17 -27 -29 -48 -12
-21 -26 -44 -31 -50 -5 -7 -50 -66 -99 -132 -49 -66 -112 -145 -140 -175 -51
-55 -52 -57 -38 -117 2 -7 6 -16 10 -19 4 -4 7 -16 7 -26 0 -10 4 -26 10 -36
5 -9 21 -48 36 -87 70 -185 274 -580 306 -593 4 -2 8 -8 8 -13 0 -10 71 -121
98 -151 13 -16 17 -14 45 25 17 23 30 44 28 46 -1 2 1 7 6 10 8 6 43 55 53 76
3 6 31 53 63 107 31 53 57 101 57 106 0 6 4 12 8 14 10 4 130 248 147 298 1 3
7 19 14 35 27 63 91 247 91 260 0 8 -6 20 -13 27 -7 7 -41 47 -77 88 -36 41
-68 77 -72 78 -5 2 -8 10 -8 18 0 7 -9 19 -20 26 -11 7 -20 17 -20 21 0 5 -15
29 -32 54 -76 106 -143 218 -209 352 l-46 95 -43 -85z"/>
</g>
</svg>
